<?xml version="1.0" encoding="iso-8859-1"?>
<!-- Generator: Adobe Illustrator 19.0.0, SVG Export Plug-In . SVG Version: 6.00 Build 0)  -->
<svg version="1.1" id="Capa_1" xmlns="http://www.w3.org/2000/svg" xmlns:xlink="http://www.w3.org/1999/xlink" x="0px" y="0px"
	 viewBox="0 0 511.971 511.971" style="enable-background:new 0 0 511.971 511.971;" xml:space="preserve">
<g>
	<g>
		<g>
			<path d="M274.854,89.119c-11.213-2.366-22.633-3.615-34.092-3.729l-0.508,0.025c-0.275-0.029-1.108-0.096-1.383-0.096
				C144.989,85.317,68.74,161.153,68.233,255.034c-0.507,93.88,74.919,170.536,168.796,171.547l0.925,0.012
				c0.35,0.029,0.8,0.058,0.983,0.058c12.643,0.008,25.25-1.372,37.592-4.117c1.417-0.321,2.842-0.683,5.058-1.254
				c75.374-19.45,128.026-87.452,127.983-165.296C409.301,175.672,353.306,106.313,274.854,89.119z M276.771,404.898
				c-1.467,0.375-2.725,0.704-3.975,0.983c-10.852,2.419-21.931,3.673-33.05,3.742l-0.567-0.054
				c-0.225-0.021-0.458-0.033-0.692-0.037l-1.258-0.017c-84.313-0.937-152.106-69.669-151.884-153.986
				c0.222-84.318,68.376-152.691,152.692-153.185c0.233,0.025,1.025,0.092,1.267,0.096l1.25,0.017
				c10.333,0.096,20.631,1.22,30.742,3.354c69.697,15.056,119.878,76.083,121.183,147.376S345.87,387.301,276.771,404.898z"/>
			<path d="M231.054,62.96c0.167,0.525,0.427,1.016,0.767,1.45c0.294,0.49,0.637,0.948,1.025,1.367
				c1.627,1.572,3.796,2.459,6.059,2.475c2.259-0.035,4.421-0.918,6.059-2.475c0.341-0.429,0.683-0.854,1.025-1.367
				c0.337-0.436,0.596-0.926,0.767-1.45c0.247-0.483,0.419-1.002,0.508-1.538c0.104-0.563,0.162-1.133,0.175-1.704
				c-0.013-1.116-0.245-2.219-0.683-3.246c-0.432-1.033-1.038-1.984-1.791-2.813c-3.421-3.158-8.695-3.158-12.117,0
				c-0.753,0.829-1.359,1.78-1.792,2.813c-0.481,1.013-0.715,2.125-0.683,3.246c0.014,0.571,0.07,1.141,0.167,1.704
				C230.634,61.958,230.808,62.476,231.054,62.96z"/>
			<path d="M244.963,446.193c-3.421-3.158-8.695-3.158-12.117,0c-0.753,0.829-1.359,1.78-1.792,2.813
				c-0.481,1.013-0.715,2.125-0.683,3.246c0.014,0.544,0.07,1.086,0.167,1.621c0.083,0.565,0.258,1.112,0.517,1.621
				c0.167,0.525,0.427,1.016,0.767,1.45c0.294,0.49,0.637,0.948,1.025,1.367c1.627,1.572,3.796,2.459,6.059,2.475
				c2.259-0.035,4.421-0.918,6.059-2.475c0.341-0.429,0.683-0.854,1.025-1.367c0.337-0.436,0.596-0.926,0.767-1.45
				c0.26-0.508,0.432-1.056,0.508-1.621c0.103-0.535,0.162-1.077,0.175-1.621c-0.013-1.116-0.245-2.219-0.683-3.246
				C246.321,447.973,245.716,447.022,244.963,446.193z"/>
			<path d="M188.129,74.906L188.129,74.906c2.245,0.02,4.401-0.873,5.975-2.475c0.393-0.405,0.763-0.832,1.108-1.279
				c0.258-0.513,0.508-0.938,0.767-1.45c0.175-0.513,0.341-1.108,0.517-1.621c0.097-0.565,0.152-1.136,0.167-1.708
				c-0.012-2.255-0.934-4.41-2.558-5.975c-2.021-1.998-4.886-2.888-7.683-2.388c-0.547,0.143-1.087,0.314-1.617,0.513
				c-0.501,0.221-0.985,0.477-1.45,0.767c-0.45,0.343-0.878,0.713-1.283,1.108c-2.444,2.435-3.173,6.106-1.843,9.289
				S184.68,74.933,188.129,74.906z"/>
			<path d="M289.721,436.986c-2.268,0-4.439,0.92-6.017,2.549c-0.392,0.406-0.762,0.833-1.108,1.279
				c-0.29,0.464-0.546,0.949-0.767,1.45c-0.21,0.529-0.383,1.072-0.517,1.625c-0.097,0.563-0.152,1.133-0.167,1.704
				c0.009,1.115,0.242,2.217,0.683,3.242c0.911,2.052,2.549,3.694,4.6,4.608c3.19,1.379,6.901,0.632,9.308-1.875l0,0.001
				c0.765-0.806,1.398-1.729,1.875-2.733c0.411-1.031,0.615-2.132,0.6-3.242c0.037-2.273-0.857-4.462-2.475-6.059
				C294.16,437.906,291.989,436.986,289.721,436.986z"/>
			<path d="M140.77,94.531L140.77,94.531c1.11,0.018,2.212-0.184,3.242-0.596c1.03-0.476,1.981-1.108,2.817-1.875
				c1.57-1.63,2.456-3.799,2.475-6.063c-0.014-1.115-0.246-2.216-0.683-3.242c-0.433-1.034-1.039-1.987-1.792-2.817
				c-2.073-1.964-4.958-2.82-7.767-2.304c-0.533,0.095-1.05,0.268-1.533,0.513c-0.546,0.187-1.064,0.447-1.542,0.771
				c-0.425,0.341-0.85,0.679-1.275,1.021c-0.753,0.83-1.359,1.783-1.792,2.817c-0.48,1.011-0.715,2.122-0.683,3.242
				c-0.024,2.27,0.867,4.455,2.473,6.06S138.499,94.555,140.77,94.531z"/>
			<path d="M341.812,418.885c-0.475-0.323-0.99-0.581-1.533-0.767c-0.509-0.261-1.058-0.434-1.625-0.513
				c-1.093-0.258-2.232-0.258-3.325,0c-0.534,0.091-1.052,0.264-1.533,0.513c-0.546,0.186-1.064,0.444-1.542,0.767
				c-0.446,0.315-0.872,0.657-1.275,1.025c-0.367,0.406-0.709,0.833-1.025,1.279c-0.324,0.475-0.582,0.992-0.767,1.538
				c-0.247,0.483-0.421,1-0.517,1.533c-0.097,0.565-0.152,1.136-0.167,1.708c0.036,4.698,3.836,8.497,8.533,8.533
				c2.278-0.026,4.454-0.946,6.059-2.563c0.77-0.784,1.379-1.711,1.792-2.729c0.437-1.026,0.669-2.127,0.683-3.242
				c-0.018-2.262-0.904-4.431-2.475-6.059C342.69,419.542,342.261,419.2,341.812,418.885z"/>
			<path d="M94.096,123.206c1.604,1.616,3.781,2.536,6.059,2.558c0.543-0.014,1.083-0.071,1.617-0.171
				c0.517-0.171,1.108-0.341,1.625-0.513c0.508-0.254,1.025-0.513,1.45-0.767c0.479-0.302,0.909-0.676,1.275-1.108
				c0.797-0.782,1.437-1.71,1.883-2.733c0.409-1.031,0.61-2.133,0.592-3.242c0.041-2.273-0.854-4.464-2.475-6.059
				c-3.386-3.158-8.639-3.158-12.025,0c-1.621,1.595-2.515,3.785-2.475,6.059c-0.018,1.109,0.183,2.211,0.592,3.242
				C92.657,121.498,93.296,122.426,94.096,123.206z"/>
			<path d="M374.412,386.885c-1.041,0.412-1.975,1.055-2.733,1.879c-1.624,1.563-2.547,3.717-2.558,5.971
				c0.013,1.143,0.245,2.273,0.683,3.329c0.412,1.039,1.053,1.971,1.875,2.729c0.781,0.797,1.71,1.435,2.733,1.879
				c3.201,1.242,6.832,0.509,9.3-1.879c0.795-0.78,1.432-1.707,1.875-2.729c0.416-1.06,0.619-2.191,0.6-3.329
				c0.024-2.245-0.87-4.401-2.475-5.971C381.256,386.355,377.611,385.619,374.412,386.885z"/>
			<path d="M68.921,166.385c2.259-0.035,4.421-0.918,6.059-2.475c0.387-0.419,0.731-0.877,1.025-1.367
				c0.337-0.436,0.596-0.927,0.766-1.45c0.247-0.483,0.419-1.002,0.508-1.538c0.099-0.563,0.158-1.133,0.175-1.704
				c-0.033-2.259-0.917-4.422-2.475-6.059c-0.406-0.368-0.835-0.71-1.283-1.025c-0.475-0.324-0.99-0.583-1.533-0.77
				c-0.483-0.244-1-0.416-1.534-0.509c-1.096-0.258-2.237-0.258-3.333,0c-0.564,0.077-1.11,0.249-1.617,0.508
				c-0.546,0.187-1.064,0.447-1.542,0.771c-0.446,0.315-0.872,0.657-1.275,1.025c-0.772,0.814-1.38,1.769-1.792,2.813
				c-0.442,1.026-0.674,2.129-0.683,3.246c-0.022,2.27,0.87,4.453,2.475,6.058C64.467,165.515,66.651,166.407,68.921,166.385z"/>
			<path d="M414.862,348.06c-2.439-2.384-6.062-3.09-9.217-1.795c-1.055,0.393-2.015,1.005-2.816,1.795
				c-0.77,0.832-1.403,1.782-1.875,2.813c-0.415,1.031-0.619,2.135-0.6,3.246c-0.027,0.573,0.029,1.147,0.167,1.704
				c0.106,0.523,0.25,1.037,0.433,1.538c0.473,1.032,1.106,1.983,1.875,2.817c1.636,1.558,3.8,2.441,6.059,2.475
				c4.699-0.033,8.501-3.834,8.533-8.533c-0.013-1.116-0.245-2.219-0.683-3.246C416.327,349.809,415.687,348.848,414.862,348.06z"/>
			<path d="M46.045,213.061c1.054,0.448,2.188,0.681,3.333,0.683c4.666-0.078,8.417-3.866,8.45-8.533
				c0.004-2.266-0.885-4.443-2.475-6.059c-0.387-0.389-0.818-0.733-1.283-1.025c-0.465-0.315-0.949-0.601-1.45-0.854
				c-0.53-0.182-1.073-0.324-1.625-0.425c-2.508-0.494-5.105,0.156-7.084,1.774c-1.979,1.617-3.134,4.033-3.149,6.589
				c0.007,2.256,0.931,4.413,2.558,5.975C44.078,212.005,45.009,212.646,46.045,213.061z"/>
			<path d="M434.487,300.786c-3.372-3.202-8.661-3.202-12.033,0c-0.795,0.78-1.432,1.707-1.875,2.729
				c-1.248,3.2-0.515,6.834,1.875,9.3c1.596,1.619,3.785,2.513,6.058,2.475c2.245,0.022,4.403-0.872,5.975-2.475
				c2.506-2.404,3.254-6.113,1.875-9.3C435.95,302.476,435.309,301.543,434.487,300.786z"/>
			<path d="M42.637,264.519c3.873,0,7.263-2.603,8.263-6.345c1-3.742-0.639-7.688-3.995-9.621s-7.592-1.369-10.327,1.374
				c-3.3,3.365-3.3,8.752,0,12.117c0.425,0.341,0.85,0.683,1.275,1.021c0.477,0.324,0.996,0.583,1.542,0.771
				c0.483,0.245,1,0.418,1.534,0.513C41.493,264.446,42.064,264.503,42.637,264.519z"/>
			<path d="M429.112,249.927c-0.772,0.814-1.38,1.769-1.792,2.813c-0.438,1.027-0.67,2.13-0.683,3.246
				c0.03,2.26,0.914,4.424,2.475,6.059c0.425,0.341,0.85,0.683,1.275,1.021c0.477,0.324,0.996,0.583,1.542,0.771
				c0.483,0.245,1,0.418,1.533,0.513c0.565,0.094,1.136,0.151,1.709,0.17c2.27,0.022,4.453-0.87,6.058-2.475
				c1.605-1.605,2.497-3.788,2.475-6.058c-0.013-1.116-0.245-2.219-0.683-3.246c-0.412-1.044-1.02-1.998-1.792-2.813
				C437.807,246.768,432.533,246.768,429.112,249.927z"/>
			<path d="M46.045,298.906c-2.048,0.921-3.688,2.56-4.608,4.608c-1.368,3.19-0.618,6.893,1.883,9.3
				c0.78,0.795,1.705,1.433,2.725,1.879c1.061,0.418,2.194,0.62,3.333,0.596c2.245,0.02,4.402-0.873,5.975-2.475
				c1.591-1.615,2.48-3.792,2.475-6.059c0.02-2.244-0.873-4.399-2.475-5.971C52.894,298.375,49.247,297.639,46.045,298.906z"/>
			<path d="M420.579,208.452c0.25,0.513,0.508,1.025,0.767,1.45c0.301,0.482,0.675,0.915,1.108,1.283
				c2.445,2.408,6.091,3.126,9.267,1.826c3.176-1.3,5.271-4.369,5.325-7.801c-0.01-2.28-0.931-4.461-2.558-6.059
				c-3.389-3.158-8.644-3.158-12.033,0c-1.607,1.604-2.499,3.788-2.475,6.059c-0.029,0.546,0.031,1.093,0.175,1.621
				C420.242,207.384,420.384,207.927,420.579,208.452z"/>
			<path d="M62.862,348.06c-3.339,3.347-3.336,8.766,0.007,12.109c3.343,3.343,8.762,3.347,12.109,0.008
				c3.346-3.346,3.346-8.771,0.001-12.117C71.633,344.714,66.208,344.714,62.862,348.06z"/>
			<path d="M400.954,161.094c0.473,1.032,1.106,1.982,1.875,2.817c1.636,1.558,3.8,2.441,6.059,2.475
				c2.237-0.02,4.379-0.907,5.975-2.475c1.61-1.605,2.515-3.785,2.515-6.058s-0.905-4.453-2.515-6.058
				c-2.419-2.423-6.066-3.134-9.218-1.796c-1.055,0.393-2.015,1.005-2.816,1.795c-0.77,0.832-1.403,1.782-1.875,2.813
				c-0.415,1.031-0.619,2.135-0.6,3.246c-0.027,0.573,0.029,1.147,0.167,1.704C400.626,160.079,400.771,160.593,400.954,161.094z"/>
			<path d="M94.096,388.764c-3.306,3.318-3.299,8.686,0.015,11.996c3.314,3.31,8.682,3.31,11.996,0
				c3.314-3.31,3.32-8.678,0.015-11.996C102.752,385.562,97.464,385.562,94.096,388.764z"/>
			<path d="M371.679,123.206c0.758,0.823,1.692,1.464,2.733,1.875c3.187,1.379,6.896,0.631,9.3-1.875
				c0.795-0.782,1.431-1.71,1.875-2.733c0.415-1.029,0.619-2.132,0.6-3.242c0.018-2.854-1.394-5.528-3.761-7.122
				c-2.367-1.595-5.375-1.899-8.014-0.811c-1.024,0.443-1.952,1.079-2.733,1.875c-0.821,0.758-1.462,1.691-1.875,2.729
				c-0.438,1.056-0.67,2.186-0.683,3.329c0.013,1.115,0.245,2.216,0.683,3.242C370.217,121.512,370.858,122.446,371.679,123.206z"/>
			<path d="M146.829,419.911c-2.05-2.003-4.956-2.865-7.767-2.304c-0.534,0.091-1.052,0.264-1.534,0.512
				c-0.546,0.186-1.064,0.444-1.542,0.767c-0.446,0.315-0.872,0.657-1.275,1.025c-0.791,0.801-1.401,1.761-1.792,2.817
				c-0.481,1.011-0.715,2.122-0.683,3.242c0.03,2.26,0.914,4.424,2.475,6.059c1.626,1.574,3.796,2.461,6.059,2.475
				c1.115-0.014,2.216-0.246,3.242-0.683c1.044-0.414,2-1.022,2.817-1.792c1.557-1.637,2.44-3.8,2.475-6.059
				c-0.013-1.115-0.245-2.216-0.683-3.242C148.229,421.672,147.619,420.712,146.829,419.911z"/>
			<path d="M337.037,94.531c2.258-0.034,4.421-0.916,6.059-2.471c0.789-0.802,1.399-1.762,1.792-2.817
				c0.438-1.027,0.67-2.13,0.683-3.246c-0.013-0.544-0.072-1.086-0.175-1.621c-0.077-0.565-0.249-1.113-0.508-1.621
				c-0.17-0.524-0.43-1.014-0.767-1.45c-0.341-0.513-0.683-0.938-1.025-1.367c-0.425-0.341-0.858-0.679-1.283-1.021
				c-0.474-0.324-0.99-0.583-1.533-0.771c-0.51-0.257-1.059-0.431-1.625-0.513c-1.102-0.171-2.223-0.171-3.325,0
				c-0.533,0.095-1.05,0.268-1.533,0.513c-0.546,0.187-1.064,0.447-1.542,0.771c-0.425,0.341-0.85,0.679-1.275,1.021
				c-0.387,0.419-0.731,0.877-1.025,1.367c-0.34,0.434-0.6,0.925-0.767,1.45c-0.259,0.509-0.433,1.056-0.517,1.621
				c-0.096,0.535-0.152,1.077-0.167,1.621c0.03,2.261,0.914,4.426,2.475,6.063C332.606,93.632,334.775,94.516,337.037,94.531z"/>
			<path d="M193.51,439.002c-1.981-1.617-4.58-2.267-7.089-1.771v0c-0.546,0.114-1.086,0.258-1.617,0.429
				c-0.517,0.254-0.942,0.508-1.45,0.767c-0.45,0.343-0.878,0.713-1.283,1.108c-3.3,3.332-3.3,8.701,0,12.033
				c0.405,0.395,0.834,0.765,1.283,1.108c0.508,0.254,0.933,0.513,1.45,0.767c0.592,0.171,1.108,0.341,1.617,0.513
				c0.564,0.1,1.135,0.157,1.708,0.171c4.666-0.111,8.423-3.867,8.533-8.533C196.646,443.036,195.49,440.619,193.51,439.002z"/>
			<path d="M283.704,72.431c0.781,0.794,1.706,1.431,2.725,1.879c3.204,1.242,6.838,0.509,9.308-1.879
				c0.766-0.804,1.399-1.725,1.875-2.729c0.412-1.061,0.615-2.191,0.6-3.329c0.019-2.245-0.874-4.401-2.475-5.975
				c-2.461-2.406-6.107-3.141-9.308-1.875c-1.036,0.415-1.967,1.055-2.725,1.875c-0.433,0.368-0.807,0.801-1.108,1.283
				c-0.309,0.453-0.566,0.94-0.767,1.45c-0.222,0.523-0.395,1.066-0.517,1.621c-0.097,0.535-0.152,1.077-0.167,1.621
				c0.018,1.143,0.25,2.272,0.683,3.329C282.239,70.742,282.88,71.676,283.704,72.431z"/>
			<path d="M501.142,184.81c-0.071-0.195-0.112-0.394-0.197-0.582c-7.991-25.286-20.145-49.062-35.961-70.348
				c-0.132-0.15-0.203-0.344-0.345-0.484c-45.036-60.61-116.092-96.339-191.602-96.344c-6.489,0-12.145,0.23-17.331,0.684
				c-4.529-0.307-9.039-0.521-13.494-0.559c-1.1-0.098-2.204-0.14-3.308-0.125C107.61,17.04,0.915,122.989,0.006,254.28
				s104.308,238.707,235.59,240.514c1.1,0.098,2.204,0.14,3.308,0.125c5.709,0,11.393-0.271,17.06-0.667
				c5.119,0.44,10.688,0.667,17.073,0.667c75.51-0.005,146.566-35.734,191.602-96.344c0.142-0.14,0.213-0.334,0.345-0.484
				c15.816-21.286,27.97-45.062,35.961-70.348c0.085-0.188,0.126-0.387,0.197-0.582C515.58,280.809,515.58,231.162,501.142,184.81z
				 M454.088,127.985c11.235,15.807,20.345,33.021,27.097,51.2h-16.31c-6.199-17.987-14.514-35.175-24.769-51.2H454.088z
				 M440.695,110.919H428.17c-16.404-21.426-36.289-39.944-58.826-54.784C396.601,69.362,420.878,88.002,440.695,110.919z
				 M287.729,472.51c-16.03,3.566-32.403,5.358-48.825,5.342c-0.534,0.004-1.067,0.012-2.392-0.083
				C114.459,476.471,16.385,376.812,17.043,254.754c0.658-122.058,99.801-220.654,221.861-220.635h0.358
				c0.458,0,0.992,0.009,2.025,0.083c14.893,0.147,29.736,1.772,44.308,4.85c100.586,21.676,173.08,109.65,175.131,212.524
				c2.051,102.874-66.88,193.667-166.523,219.334C292.053,471.469,289.896,472.031,287.729,472.51z M372.032,454.458
				c21.702-14.578,40.863-32.62,56.72-53.406h11.943C421.533,423.186,398.202,441.333,372.032,454.458z M454.088,383.985h-13.493
				c10.188-16.03,18.428-33.218,24.543-51.2h16.047C474.433,350.965,465.323,368.179,454.088,383.985z M486.669,315.719h-16.393
				c4.243-16.756,6.657-33.923,7.201-51.2h17.21C494.034,281.841,491.342,299.026,486.669,315.719z M477.461,247.452
				c-0.572-17.284-3.039-34.454-7.357-51.2h16.565c4.673,16.693,7.365,33.878,8.019,51.2H477.461z"/>
			<path d="M332.771,290.119h-83.033l6.683-27.7l35.25-6.579c4.039-0.753,6.968-4.279,6.967-8.388v-34.133
				c0-2.541-1.132-4.949-3.088-6.57c-1.956-1.622-4.532-2.288-7.029-1.817l-19.209,3.621l14.758-61.508
				c0.608-2.542,0.019-5.222-1.599-7.274c-1.618-2.052-4.087-3.25-6.701-3.251h-59.733c-3.883,0-7.277,2.622-8.258,6.379
				l-21.167,81.125l-34.617,6.508c-4.034,0.759-6.957,4.282-6.958,8.387v34.133c0,2.538,1.129,4.944,3.081,6.565
				c1.952,1.621,4.525,2.289,7.019,1.823l17.333-3.242l-15.892,60.967c-0.665,2.557-0.108,5.279,1.507,7.37
				c1.616,2.091,4.108,3.316,6.751,3.318h153.6c3.667,0,6.924-2.341,8.092-5.817l14.333-42.667c0.872-2.604,0.439-5.468-1.165-7.697
				C338.094,291.442,335.516,290.12,332.771,290.119z M312.304,332.785H175.879l16.5-63.296c0.738-2.827-0.022-5.835-2.014-7.972
				c-1.992-2.137-4.939-3.107-7.811-2.569l-20.45,3.825v-16.775l32.975-6.2c3.246-0.609,5.85-3.037,6.683-6.233l20.867-79.979
				h42.317l-15.308,63.8c-0.675,2.815,0.123,5.781,2.119,7.877c1.996,2.097,4.919,3.038,7.764,2.502l22.05-4.154v16.754
				l-33.733,6.296c-3.387,0.658-6.054,3.276-6.775,6.65l-10.45,43.342c-0.617,2.542-0.032,5.227,1.586,7.282
				c1.618,2.055,4.09,3.254,6.706,3.251h82L312.304,332.785z"/>
		</g>
	</g>
</g>
<g>
</g>
<g>
</g>
<g>
</g>
<g>
</g>
<g>
</g>
<g>
</g>
<g>
</g>
<g>
</g>
<g>
</g>
<g>
</g>
<g>
</g>
<g>
</g>
<g>
</g>
<g>
</g>
<g>
</g>
</svg>
